<svg width="36" height="41" viewBox="0 0 36 41" fill="none" xmlns="http://www.w3.org/2000/svg">
<path d="M0.759766 7C5.60923 3.0007 11.7142 0.840581 17.9998 0.899998C24.1398 0.899998 30.8198 3.05 35.2398 7.04M12.6098 23.2C12.6098 19.62 14.4398 17.28 18.0198 17.28C21.5998 17.28 23.3898 19.62 23.3898 23.2H12.6098ZM11.5398 27C11.5398 27 11.3798 32.89 12.6098 35.08C13.8398 37.27 17.9998 39.9 17.9998 39.9C17.9998 39.9 22.1498 37.24 23.3898 35.05C24.6298 32.86 24.4598 27 24.4598 27C24.4598 27 20.2198 25.36 17.9998 25.36C15.7798 25.36 11.5398 27 11.5398 27ZM7.32977 12.75C10.421 10.4596 14.1529 9.19697 17.9998 9.14C21.8233 9.20752 25.5298 10.4698 28.5998 12.75H7.32977Z" stroke="#1DFAE5" stroke-width="1.5" stroke-linecap="round" stroke-linejoin="round"/>
</svg>
